<svg width="1605" height="500" viewBox="0 0 1605 500" fill="none" xmlns="http://www.w3.org/2000/svg">
<mask id="mask0" mask-type="alpha" maskUnits="userSpaceOnUse" x="0" y="0" width="1605" height="500">
<rect x="0.383789" width="1604.62" height="500" fill="#C4C4C4"/>
</mask>
<g mask="url(#mask0)">
<path d="M183.864 149.5C116.916 81.6269 53.1838 84.1202 1.49609 72V597H1212.46V363.125C1191.95 374.796 1058.22 370.307 995.048 363.125C931.874 355.943 793.952 319.735 517.464 212C449.611 185.561 267.549 234.341 183.864 149.5Z" fill="#235473"/>
<path d="M1298.09 212.5C1462.11 183.5 1503.25 48 1603.89 48V597H794.353L682.597 250C696.308 263 902.241 238 944.473 230C1156.05 189.922 1238.38 223.057 1298.09 212.5Z" fill="#235473"/>
<path d="M110.407 244.295C78.0673 232.328 19.8476 219.319 0.383789 215.644L1.49579 408.54L0.383789 671H802.681H1604.98L1605 236.422C1516.96 205.558 1383.79 202.567 1331.01 207.29C1279.36 207.29 1145.73 243.508 1082.85 257.68C990.768 273.427 905.053 256.105 872.863 245.082C800.997 220.518 738.862 211.752 716.778 210.44C659.285 206.031 572.297 207.553 535.99 208.865C487.705 210.61 407.604 232.747 372.045 244.295C308.039 261.616 256.385 261.616 217.084 261.616C171.044 259.254 130.245 251.119 110.407 244.295Z" fill="#A0CFD3"/>
</g>
</svg>
