<svg width="32" height="33" viewBox="0 0 32 33" fill="none" xmlns="http://www.w3.org/2000/svg">
<path d="M15.9987 10.5542C12.5934 10.5542 9.83472 13.3142 9.83472 16.7182C9.83472 20.1235 12.5934 22.8835 15.9987 22.8835C19.4014 22.8835 22.1627 20.1235 22.1627 16.7182C22.1627 13.3142 19.4014 10.5542 15.9987 10.5542ZM15.9987 20.7235C13.7867 20.7235 11.9934 18.9302 11.9934 16.7195C11.9934 14.5075 13.7867 12.7155 15.9987 12.7155C18.2107 12.7155 20.0014 14.5075 20.0014 16.7195C20.0014 18.9302 18.2107 20.7235 15.9987 20.7235Z" fill="black"/>
<path d="M22.408 11.7649C23.2019 11.7649 23.8454 11.1214 23.8454 10.3276C23.8454 9.53377 23.2019 8.89026 22.408 8.89026C21.6142 8.89026 20.9707 9.53377 20.9707 10.3276C20.9707 11.1214 21.6142 11.7649 22.408 11.7649Z" fill="black"/>
<path d="M27.3774 8.86619C26.752 7.25419 25.4787 5.97952 23.8667 5.35685C22.9347 5.00619 21.9494 4.81819 20.952 4.79685C19.668 4.74085 19.2614 4.72485 16.0054 4.72485C12.7494 4.72485 12.332 4.72485 11.0587 4.79685C10.064 4.81685 9.07869 5.00485 8.14669 5.35685C6.53335 5.97952 5.26002 7.25419 4.63602 8.86619C4.28535 9.79952 4.09735 10.7835 4.07735 11.7809C4.02002 13.0635 4.00269 13.4702 4.00269 16.7275C4.00269 19.9835 4.00269 20.3982 4.07735 21.6742C4.09735 22.6715 4.28535 23.6555 4.63602 24.5902C5.26135 26.2009 6.53469 27.4755 8.14802 28.0995C9.07602 28.4622 10.0614 28.6675 11.0614 28.6995C12.3454 28.7555 12.752 28.7729 16.008 28.7729C19.264 28.7729 19.6814 28.7729 20.9547 28.6995C21.9507 28.6795 22.936 28.4902 23.8694 28.1409C25.4814 27.5155 26.7547 26.2422 27.38 24.6302C27.7307 23.6969 27.9187 22.7129 27.9387 21.7155C27.996 20.4329 28.0134 20.0262 28.0134 16.7689C28.0134 13.5115 28.0134 13.0982 27.9387 11.8222C27.9214 10.8115 27.7347 9.81019 27.3774 8.86619ZM25.7534 21.5755C25.744 22.3435 25.6054 23.1049 25.3387 23.8262C24.932 24.8755 24.104 25.7049 23.056 26.1075C22.3427 26.3729 21.5907 26.5115 20.8294 26.5222C19.5627 26.5809 19.2054 26.5955 15.9574 26.5955C12.7067 26.5955 12.3747 26.5955 11.084 26.5222C10.3254 26.5129 9.57069 26.3729 8.85869 26.1075C7.80669 25.7062 6.97335 24.8769 6.56669 23.8262C6.30535 23.1142 6.16402 22.3609 6.15202 21.6009C6.09469 20.3342 6.08135 19.9769 6.08135 16.7289C6.08135 13.4795 6.08135 13.1475 6.15202 11.8555C6.16135 11.0875 6.30002 10.3275 6.56669 9.60619C6.97335 8.55419 7.80669 7.72619 8.85869 7.32352C9.57069 7.05952 10.3254 6.91952 11.084 6.90885C12.352 6.85152 12.708 6.83552 15.9574 6.83552C19.2067 6.83552 19.54 6.83552 20.8294 6.90885C21.5907 6.91819 22.3427 7.05819 23.056 7.32352C24.104 7.72752 24.932 8.55685 25.3387 9.60619C25.6 10.3182 25.7414 11.0715 25.7534 11.8315C25.8107 13.0995 25.8254 13.4555 25.8254 16.7049C25.8254 19.9529 25.8254 20.3022 25.768 21.5769H25.7534V21.5755Z" fill="black"/>
</svg>
